  0
SECTION
  2
HEADER
  9
$ACADVER
  1
AC1006
  9
$DWGCODEPAGE
  3
ansi_1252
  9
$INSBASE
 10
0.0
 20
0.0
 30
0.0
  9
$EXTMIN
 10
-615.0756
 20
-367.9955
  9
$EXTMAX
 10
484.9246
 20
107.1366
  9
$LIMMIN
 10
0.0
 20
0.0
  9
$LIMMAX
 10
12.0
 20
9.0
  9
$ORTHOMODE
 70
     0
  9
$REGENMODE
 70
     1
  9
$FILLMODE
 70
     1
  9
$QTEXTMODE
 70
     0
  9
$MIRRTEXT
 70
     1
  9
$DRAGMODE
 70
     2
  9
$LTSCALE
 40
1.0
  9
$OSMODE
 70
    37
  9
$ATTMODE
 70
     1
  9
$TEXTSIZE
 40
0.2
  9
$TRACEWID
 40
0.05
  9
$TEXTSTYLE
  7
STANDARD
  9
$CLAYER
  8
0
  9
$CELTYPE
  6
BYLAYER
  9
$CECOLOR
 62
   256
  9
$DIMSCALE
 40
1.0
  9
$DIMASZ
 40
0.18
  9
$DIMEXO
 40
0.0625
  9
$DIMDLI
 40
0.38
  9
$DIMRND
 40
0.0
  9
$DIMDLE
 40
0.0
  9
$DIMEXE
 40
0.18
  9
$DIMTP
 40
0.0
  9
$DIMTM
 40
0.0
  9
$DIMTXT
 40
0.18
  9
$DIMCEN
 40
0.09
  9
$DIMTSZ
 40
0.0
  9
$DIMTOL
 70
     0
  9
$DIMLIM
 70
     0
  9
$DIMTIH
 70
     1
  9
$DIMTOH
 70
     1
  9
$DIMSE1
 70
     0
  9
$DIMSE2
 70
     0
  9
$DIMTAD
 70
     0
  9
$DIMZIN
 70
     0
  9
$DIMBLK
  1

  9
$DIMASO
 70
     1
  9
$DIMSHO
 70
     1
  9
$DIMPOST
  1

  9
$DIMAPOST
  1

  9
$DIMALT
 70
     0
  9
$DIMALTD
 70
     2
  9
$DIMALTF
 40
25.4
  9
$DIMLFAC
 40
1.0
  9
$DIMTOFL
 70
     0
  9
$DIMTVP
 40
0.0
  9
$DIMTIX
 70
     0
  9
$DIMSOXD
 70
     0
  9
$DIMSAH
 70
     0
  9
$DIMBLK1
  1

  9
$DIMBLK2
  1

  9
$LUNITS
 70
     2
  9
$LUPREC
 70
     4
  9
$SKETCHINC
 40
0.1
  9
$FILLETRAD
 40
0.5
  9
$AUNITS
 70
     0
  9
$AUPREC
 70
     0
  9
$MENU
  1
.
  9
$ELEVATION
 40
0.0
  9
$THICKNESS
 40
0.0
  9
$LIMCHECK
 70
     0
  9
$CHAMFERA
 40
0.5
  9
$CHAMFERB
 40
0.5
  9
$SKPOLY
 70
     0
  9
$TDCREATE
 40
2457067.516830903
  9
$TDUPDATE
 40
2457067.516830914
  9
$TDINDWG
 40
0.0000000116
  9
$TDUSRTIMER
 40
0.0000000116
  9
$USRTIMER
 70
     1
  9
$ANGBASE
 50
0.0
  9
$ANGDIR
 70
     0
  9
$PDMODE
 70
     0
  9
$PDSIZE
 40
0.0
  9
$PLINEWID
 40
0.0
  9
$COORDS
 70
     1
  9
$SPLFRAME
 70
     0
  9
$SPLINETYPE
 70
     6
  9
$SPLINESEGS
 70
     8
  9
$ATTDIA
 70
     0
  9
$ATTREQ
 70
     1
  9
$HANDLING
 70
     1
  9
$HANDSEED
  5
245
  9
$SURFTAB1
 70
     6
  9
$SURFTAB2
 70
     6
  9
$SURFTYPE
 70
     6
  9
$SURFU
 70
     6
  9
$SURFV
 70
     6
  9
$UCSNAME
  2

  9
$UCSORG
 10
0.0
 20
0.0
 30
0.0
  9
$UCSXDIR
 10
1.0
 20
0.0
 30
0.0
  9
$UCSYDIR
 10
0.0
 20
1.0
 30
0.0
  9
$USERI1
 70
     0
  9
$USERI2
 70
     0
  9
$USERI3
 70
     0
  9
$USERI4
 70
     0
  9
$USERI5
 70
     0
  9
$USERR1
 40
0.0
  9
$USERR2
 40
0.0
  9
$USERR3
 40
0.0
  9
$USERR4
 40
0.0
  9
$USERR5
 40
0.0
  9
$WORLDVIEW
 70
     1
  0
ENDSEC
  0
SECTION
  2
TABLES
  0
TABLE
  2
VPORT
 70
     1
  0
VPORT
  2
*ACTIVE
 70
     0
 10
0.0
 20
0.0
 11
1.0
 21
1.0
 12
10.42990654205607
 22
4.5
 13
0.0
 23
0.0
 14
0.5
 24
0.5
 15
0.5
 25
0.5
 16
0.0
 26
0.0
 36
1.0
 17
0.0
 27
0.0
 37
0.0
 40
9.0
 41
1.972972972850329
 42
50.0
 43
0.0
 44
0.0
 50
0.0
 51
0.0
 71
     0
 72
   100
 73
     1
 74
     3
 75
     0
 76
     0
 77
     0
 78
     0
  0
ENDTAB
  0
TABLE
  2
LTYPE
 70
     1
  0
LTYPE
  2
CONTINUOUS
 70
     0
  3
Solid line
 72
    65
 73
     0
 40
0.0
  0
ENDTAB
  0
TABLE
  2
LAYER
 70
     2
  0
LAYER
  2
0
 70
     0
 62
     7
  6
CONTINUOUS
  0
LAYER
  2
LAYER_1
 70
     0
 62
     7
  6
CONTINUOUS
  0
ENDTAB
  0
TABLE
  2
STYLE
 70
     1
  0
STYLE
  2
STANDARD
 70
     0
 40
0.0
 41
1.0
 50
0.0
 71
     0
 42
0.2
  3
txt
  4

  0
ENDTAB
  0
TABLE
  2
VIEW
 70
     0
  0
ENDTAB
  0
TABLE
  2
UCS
 70
     0
  0
ENDTAB
  0
ENDSEC
  0
SECTION
  2
BLOCKS
  0
ENDSEC
  0
SECTION
  2
ENTITIES
  0
POLYLINE
  5
41
  8
LAYER_1
 62
   250
 66
     1
 10
0.0
 20
0.0
 30
0.0
  0
VERTEX
  5
58
  8
LAYER_1
 62
   250
 10
-615.0755
 20
107.0366
 30
0.0
  0
VERTEX
  5
59
  8
LAYER_1
 62
   250
 10
484.9245
 20
106.3254
 30
0.0
  0
SEQEND
  5
5A
  8
LAYER_1
 62
   250
  0
POLYLINE
  5
42
  8
LAYER_1
 62
   250
 66
     1
 10
0.0
 20
0.0
 30
0.0
 70
     1
  0
VERTEX
  5
5B
  8
LAYER_1
 62
   250
 10
-566.5098
 20
-197.8954
 30
0.0
  0
VERTEX
  5
5C
  8
LAYER_1
 62
   250
 10
433.4902
 20
-197.8954
 30
0.0
  0
VERTEX
  5
5D
  8
LAYER_1
 62
   250
 10
433.4902
 20
52.1046
 30
0.0
  0
VERTEX
  5
5E
  8
LAYER_1
 62
   250
 10
-566.5098
 20
52.1046
 30
0.0
  0
VERTEX
  5
5F
  8
LAYER_1
 62
   250
 10
-566.5098
 20
-197.8954
 30
0.0
  0
SEQEND
  5
60
  8
LAYER_1
 62
   250
  0
POLYLINE
  5
43
  8
LAYER_1
 62
   250
 66
     1
 10
0.0
 20
0.0
 30
0.0
 70
     1
  0
VERTEX
  5
61
  8
LAYER_1
 62
   250
 10
-334.6413
 20
-32.8955
 30
0.0
  0
VERTEX
  5
62
  8
LAYER_1
 62
   250
 10
381.6217
 20
-32.8955
 30
0.0
  0
VERTEX
  5
63
  8
LAYER_1
 62
   250
 10
386.0146
 20
-33.3418
 30
0.0
  0
VERTEX
  5
64
  8
LAYER_1
 62
   250
 10
390.1128
 20
-34.6211
 30
0.0
  0
VERTEX
  5
65
  8
LAYER_1
 62
   250
 10
393.8266
 20
-36.6435
 30
0.0
  0
VERTEX
  5
66
  8
LAYER_1
 62
   250
 10
397.0663
 20
-39.3194
 30
0.0
  0
VERTEX
  5
67
  8
LAYER_1
 62
   250
 10
399.7422
 20
-42.5591
 30
0.0
  0
VERTEX
  5
68
  8
LAYER_1
 62
   250
 10
401.7646
 20
-46.2729
 30
0.0
  0
VERTEX
  5
69
  8
LAYER_1
 62
   250
 10
403.0439
 20
-50.3711
 30
0.0
  0
VERTEX
  5
6A
  8
LAYER_1
 62
   250
 10
403.4902
 20
-54.764
 30
0.0
  0
VERTEX
  5
6B
  8
LAYER_1
 62
   250
 10
403.4902
 20
-91.027
 30
0.0
  0
VERTEX
  5
6C
  8
LAYER_1
 62
   250
 10
403.0439
 20
-95.4199
 30
0.0
  0
VERTEX
  5
6D
  8
LAYER_1
 62
   250
 10
401.7646
 20
-99.5181
 30
0.0
  0
VERTEX
  5
6E
  8
LAYER_1
 62
   250
 10
399.7422
 20
-103.2319
 30
0.0
  0
VERTEX
  5
6F
  8
LAYER_1
 62
   250
 10
397.0663
 20
-106.4716
 30
0.0
  0
VERTEX
  5
70
  8
LAYER_1
 62
   250
 10
393.8266
 20
-109.1475
 30
0.0
  0
VERTEX
  5
71
  8
LAYER_1
 62
   250
 10
390.1128
 20
-111.1699
 30
0.0
  0
VERTEX
  5
72
  8
LAYER_1
 62
   250
 10
386.0146
 20
-112.4492
 30
0.0
  0
VERTEX
  5
73
  8
LAYER_1
 62
   250
 10
381.6217
 20
-112.8955
 30
0.0
  0
VERTEX
  5
74
  8
LAYER_1
 62
   250
 10
-334.6413
 20
-112.8955
 30
0.0
  0
VERTEX
  5
75
  8
LAYER_1
 62
   250
 10
-339.0342
 20
-112.4492
 30
0.0
  0
VERTEX
  5
76
  8
LAYER_1
 62
   250
 10
-343.1324
 20
-111.1699
 30
0.0
  0
VERTEX
  5
77
  8
LAYER_1
 62
   250
 10
-346.8462
 20
-109.1475
 30
0.0
  0
VERTEX
  5
78
  8
LAYER_1
 62
   250
 10
-350.0859
 20
-106.4716
 30
0.0
  0
VERTEX
  5
79
  8
LAYER_1
 62
   250
 10
-352.7618
 20
-103.2319
 30
0.0
  0
VERTEX
  5
7A
  8
LAYER_1
 62
   250
 10
-354.7842
 20
-99.5181
 30
0.0
  0
VERTEX
  5
7B
  8
LAYER_1
 62
   250
 10
-356.0635
 20
-95.4199
 30
0.0
  0
VERTEX
  5
7C
  8
LAYER_1
 62
   250
 10
-356.5098
 20
-91.027
 30
0.0
  0
VERTEX
  5
7D
  8
LAYER_1
 62
   250
 10
-356.5098
 20
-54.764
 30
0.0
  0
VERTEX
  5
7E
  8
LAYER_1
 62
   250
 10
-356.0635
 20
-50.3711
 30
0.0
  0
VERTEX
  5
7F
  8
LAYER_1
 62
   250
 10
-354.7842
 20
-46.2729
 30
0.0
  0
VERTEX
  5
80
  8
LAYER_1
 62
   250
 10
-352.7618
 20
-42.5591
 30
0.0
  0
VERTEX
  5
81
  8
LAYER_1
 62
   250
 10
-350.0859
 20
-39.3194
 30
0.0
  0
VERTEX
  5
82
  8
LAYER_1
 62
   250
 10
-346.8462
 20
-36.6435
 30
0.0
  0
VERTEX
  5
83
  8
LAYER_1
 62
   250
 10
-343.1324
 20
-34.6211
 30
0.0
  0
VERTEX
  5
84
  8
LAYER_1
 62
   250
 10
-339.0342
 20
-33.3418
 30
0.0
  0
VERTEX
  5
85
  8
LAYER_1
 62
   250
 10
-334.6413
 20
-32.8955
 30
0.0
  0
SEQEND
  5
86
  8
LAYER_1
 62
   250
  0
POLYLINE
  5
44
  8
LAYER_1
 62
   250
 66
     1
 10
0.0
 20
0.0
 30
0.0
 70
     1
  0
VERTEX
  5
87
  8
LAYER_1
 62
   250
 10
-507.6981
 20
-27.8955
 30
0.0
  0
VERTEX
  5
88
  8
LAYER_1
 62
   250
 10
-390.3215
 20
-27.8955
 30
0.0
  0
VERTEX
  5
89
  8
LAYER_1
 62
   250
 10
-387.547
 20
-28.1774
 30
0.0
  0
VERTEX
  5
8A
  8
LAYER_1
 62
   250
 10
-384.9586
 20
-28.9853
 30
0.0
  0
VERTEX
  5
8B
  8
LAYER_1
 62
   250
 10
-382.6131
 20
-30.2626
 30
0.0
  0
VERTEX
  5
8C
  8
LAYER_1
 62
   250
 10
-380.567
 20
-31.9527
 30
0.0
  0
VERTEX
  5
8D
  8
LAYER_1
 62
   250
 10
-378.8769
 20
-33.9988
 30
0.0
  0
VERTEX
  5
8E
  8
LAYER_1
 62
   250
 10
-377.5996
 20
-36.3443
 30
0.0
  0
VERTEX
  5
8F
  8
LAYER_1
 62
   250
 10
-376.7917
 20
-38.9326
 30
0.0
  0
VERTEX
  5
90
  8
LAYER_1
 62
   250
 10
-376.5098
 20
-41.7071
 30
0.0
  0
VERTEX
  5
91
  8
LAYER_1
 62
   250
 10
-376.5098
 20
-104.0839
 30
0.0
  0
VERTEX
  5
92
  8
LAYER_1
 62
   250
 10
-376.7917
 20
-106.8584
 30
0.0
  0
VERTEX
  5
93
  8
LAYER_1
 62
   250
 10
-377.5996
 20
-109.4467
 30
0.0
  0
VERTEX
  5
94
  8
LAYER_1
 62
   250
 10
-378.8769
 20
-111.7922
 30
0.0
  0
VERTEX
  5
95
  8
LAYER_1
 62
   250
 10
-380.567
 20
-113.8384
 30
0.0
  0
VERTEX
  5
96
  8
LAYER_1
 62
   250
 10
-382.6131
 20
-115.5284
 30
0.0
  0
VERTEX
  5
97
  8
LAYER_1
 62
   250
 10
-384.9586
 20
-116.8057
 30
0.0
  0
VERTEX
  5
98
  8
LAYER_1
 62
   250
 10
-387.547
 20
-117.6136
 30
0.0
  0
VERTEX
  5
99
  8
LAYER_1
 62
   250
 10
-390.3215
 20
-117.8955
 30
0.0
  0
VERTEX
  5
9A
  8
LAYER_1
 62
   250
 10
-507.6981
 20
-117.8955
 30
0.0
  0
VERTEX
  5
9B
  8
LAYER_1
 62
   250
 10
-510.4726
 20
-117.6136
 30
0.0
  0
VERTEX
  5
9C
  8
LAYER_1
 62
   250
 10
-513.061
 20
-116.8057
 30
0.0
  0
VERTEX
  5
9D
  8
LAYER_1
 62
   250
 10
-515.4065
 20
-115.5284
 30
0.0
  0
VERTEX
  5
9E
  8
LAYER_1
 62
   250
 10
-517.4526
 20
-113.8384
 30
0.0
  0
VERTEX
  5
9F
  8
LAYER_1
 62
   250
 10
-519.1427
 20
-111.7922
 30
0.0
  0
VERTEX
  5
A0
  8
LAYER_1
 62
   250
 10
-520.42
 20
-109.4467
 30
0.0
  0
VERTEX
  5
A1
  8
LAYER_1
 62
   250
 10
-521.2279
 20
-106.8584
 30
0.0
  0
VERTEX
  5
A2
  8
LAYER_1
 62
   250
 10
-521.5098
 20
-104.0839
 30
0.0
  0
VERTEX
  5
A3
  8
LAYER_1
 62
   250
 10
-521.5098
 20
-41.7071
 30
0.0
  0
VERTEX
  5
A4
  8
LAYER_1
 62
   250
 10
-521.2279
 20
-38.9326
 30
0.0
  0
VERTEX
  5
A5
  8
LAYER_1
 62
   250
 10
-520.42
 20
-36.3443
 30
0.0
  0
VERTEX
  5
A6
  8
LAYER_1
 62
   250
 10
-519.1427
 20
-33.9988
 30
0.0
  0
VERTEX
  5
A7
  8
LAYER_1
 62
   250
 10
-517.4526
 20
-31.9527
 30
0.0
  0
VERTEX
  5
A8
  8
LAYER_1
 62
   250
 10
-515.4065
 20
-30.2626
 30
0.0
  0
VERTEX
  5
A9
  8
LAYER_1
 62
   250
 10
-513.061
 20
-28.9853
 30
0.0
  0
VERTEX
  5
AA
  8
LAYER_1
 62
   250
 10
-510.4726
 20
-28.1774
 30
0.0
  0
VERTEX
  5
AB
  8
LAYER_1
 62
   250
 10
-507.6981
 20
-27.8955
 30
0.0
  0
SEQEND
  5
AC
  8
LAYER_1
 62
   250
  0
POLYLINE
  5
45
  8
LAYER_1
 62
   250
 66
     1
 10
0.0
 20
0.0
 30
0.0
 70
     1
  0
VERTEX
  5
AD
  8
LAYER_1
 62
   250
 10
-553.7048
 20
47.9046
 30
0.0
  0
VERTEX
  5
AE
  8
LAYER_1
 62
   250
 10
-554.0949806440323
 20
47.86617056080647
 30
0.0
  0
VERTEX
  5
AF
  8
LAYER_1
 62
   250
 10
-554.4701668647301
 20
47.75235906502257
 30
0.0
  0
VERTEX
  5
B0
  8
LAYER_1
 62
   250
 10
-554.8159404660391
 20
47.56753922460509
 30
0.0
  0
VERTEX
  5
B1
  8
LAYER_1
 62
   250
 10
-555.1190135623731
 20
47.31881356237309
 30
0.0
  0
VERTEX
  5
B2
  8
LAYER_1
 62
   250
 10
-555.3677392246051
 20
47.0157404660392
 30
0.0
  0
VERTEX
  5
B3
  8
LAYER_1
 62
   250
 10
-555.5525590650226
 20
46.66996686473018
 30
0.0
  0
VERTEX
  5
B4
  8
LAYER_1
 62
   250
 10
-555.6663705608064
 20
46.29478064403226
 30
0.0
  0
VERTEX
  5
B5
  8
LAYER_1
 62
   250
 10
-555.7048
 20
45.9046
 30
0.0
  0
VERTEX
  5
B6
  8
LAYER_1
 62
   250
 10
-555.6663705608064
 20
45.51441935596775
 30
0.0
  0
VERTEX
  5
B7
  8
LAYER_1
 62
   250
 10
-555.5525590650226
 20
45.13923313526982
 30
0.0
  0
VERTEX
  5
B8
  8
LAYER_1
 62
   250
 10
-555.3677392246051
 20
44.7934595339608
 30
0.0
  0
VERTEX
  5
B9
  8
LAYER_1
 62
   250
 10
-555.1190135623731
 20
44.49038643762691
 30
0.0
  0
VERTEX
  5
BA
  8
LAYER_1
 62
   250
 10
-554.8159404660391
 20
44.24166077539491
 30
0.0
  0
VERTEX
  5
BB
  8
LAYER_1
 62
   250
 10
-554.4701668647301
 20
44.05684093497743
 30
0.0
  0
VERTEX
  5
BC
  8
LAYER_1
 62
   250
 10
-554.0949806440323
 20
43.94302943919354
 30
0.0
  0
VERTEX
  5
BD
  8
LAYER_1
 62
   250
 10
-553.7048
 20
43.9046
 30
0.0
  0
VERTEX
  5
BE
  8
LAYER_1
 62
   250
 10
-553.3146193559677
 20
43.94302943919354
 30
0.0
  0
VERTEX
  5
BF
  8
LAYER_1
 62
   250
 10
-552.9394331352698
 20
44.05684093497743
 30
0.0
  0
VERTEX
  5
C0
  8
LAYER_1
 62
   250
 10
-552.5936595339608
 20
44.24166077539491
 30
0.0
  0
VERTEX
  5
C1
  8
LAYER_1
 62
   250
 10
-552.2905864376269
 20
44.49038643762691
 30
0.0
  0
VERTEX
  5
C2
  8
LAYER_1
 62
   250
 10
-552.0418607753949
 20
44.7934595339608
 30
0.0
  0
VERTEX
  5
C3
  8
LAYER_1
 62
   250
 10
-551.8570409349774
 20
45.13923313526983
 30
0.0
  0
VERTEX
  5
C4
  8
LAYER_1
 62
   250
 10
-551.7432294391936
 20
45.51441935596775
 30
0.0
  0
VERTEX
  5
C5
  8
LAYER_1
 62
   250
 10
-551.7048
 20
45.90460000000001
 30
0.0
  0
VERTEX
  5
C6
  8
LAYER_1
 62
   250
 10
-551.7432294391936
 20
46.29478064403227
 30
0.0
  0
VERTEX
  5
C7
  8
LAYER_1
 62
   250
 10
-551.8570409349774
 20
46.66996686473018
 30
0.0
  0
VERTEX
  5
C8
  8
LAYER_1
 62
   250
 10
-552.0418607753949
 20
47.01574046603921
 30
0.0
  0
VERTEX
  5
C9
  8
LAYER_1
 62
   250
 10
-552.2905864376269
 20
47.3188135623731
 30
0.0
  0
VERTEX
  5
CA
  8
LAYER_1
 62
   250
 10
-552.5936595339608
 20
47.5675392246051
 30
0.0
  0
VERTEX
  5
CB
  8
LAYER_1
 62
   250
 10
-552.9394331352698
 20
47.75235906502258
 30
0.0
  0
VERTEX
  5
CC
  8
LAYER_1
 62
   250
 10
-553.3146193559677
 20
47.86617056080647
 30
0.0
  0
SEQEND
  5
CD
  8
LAYER_1
 62
   250
  0
POLYLINE
  5
46
  8
LAYER_1
 62
   250
 66
     1
 10
0.0
 20
0.0
 30
0.0
 70
     1
  0
VERTEX
  5
CE
  8
LAYER_1
 62
   250
 10
-375.7326
 20
47.9046
 30
0.0
  0
VERTEX
  5
CF
  8
LAYER_1
 62
   250
 10
-376.1227806440323
 20
47.86617056080647
 30
0.0
  0
VERTEX
  5
D0
  8
LAYER_1
 62
   250
 10
-376.4979668647302
 20
47.75235906502257
 30
0.0
  0
VERTEX
  5
D1
  8
LAYER_1
 62
   250
 10
-376.8437404660392
 20
47.56753922460509
 30
0.0
  0
VERTEX
  5
D2
  8
LAYER_1
 62
   250
 10
-377.1468135623731
 20
47.31881356237309
 30
0.0
  0
VERTEX
  5
D3
  8
LAYER_1
 62
   250
 10
-377.3955392246051
 20
47.0157404660392
 30
0.0
  0
VERTEX
  5
D4
  8
LAYER_1
 62
   250
 10
-377.5803590650225
 20
46.66996686473018
 30
0.0
  0
VERTEX
  5
D5
  8
LAYER_1
 62
   250
 10
-377.6941705608065
 20
46.29478064403226
 30
0.0
  0
VERTEX
  5
D6
  8
LAYER_1
 62
   250
 10
-377.7326
 20
45.9046
 30
0.0
  0
VERTEX
  5
D7
  8
LAYER_1
 62
   250
 10
-377.6941705608065
 20
45.51441935596775
 30
0.0
  0
VERTEX
  5
D8
  8
LAYER_1
 62
   250
 10
-377.5803590650225
 20
45.13923313526982
 30
0.0
  0
VERTEX
  5
D9
  8
LAYER_1
 62
   250
 10
-377.3955392246051
 20
44.7934595339608
 30
0.0
  0
VERTEX
  5
DA
  8
LAYER_1
 62
   250
 10
-377.1468135623731
 20
44.49038643762691
 30
0.0
  0
VERTEX
  5
DB
  8
LAYER_1
 62
   250
 10
-376.8437404660392
 20
44.24166077539491
 30
0.0
  0
VERTEX
  5
DC
  8
LAYER_1
 62
   250
 10
-376.4979668647302
 20
44.05684093497743
 30
0.0
  0
VERTEX
  5
DD
  8
LAYER_1
 62
   250
 10
-376.1227806440322
 20
43.94302943919354
 30
0.0
  0
VERTEX
  5
DE
  8
LAYER_1
 62
   250
 10
-375.7326
 20
43.9046
 30
0.0
  0
VERTEX
  5
DF
  8
LAYER_1
 62
   250
 10
-375.3424193559677
 20
43.94302943919354
 30
0.0
  0
VERTEX
  5
E0
  8
LAYER_1
 62
   250
 10
-374.9672331352698
 20
44.05684093497743
 30
0.0
  0
VERTEX
  5
E1
  8
LAYER_1
 62
   250
 10
-374.6214595339608
 20
44.24166077539491
 30
0.0
  0
VERTEX
  5
E2
  8
LAYER_1
 62
   250
 10
-374.3183864376269
 20
44.49038643762691
 30
0.0
  0
VERTEX
  5
E3
  8
LAYER_1
 62
   250
 10
-374.0696607753949
 20
44.7934595339608
 30
0.0
  0
VERTEX
  5
E4
  8
LAYER_1
 62
   250
 10
-373.8848409349774
 20
45.13923313526983
 30
0.0
  0
VERTEX
  5
E5
  8
LAYER_1
 62
   250
 10
-373.7710294391935
 20
45.51441935596775
 30
0.0
  0
VERTEX
  5
E6
  8
LAYER_1
 62
   250
 10
-373.7326
 20
45.90460000000001
 30
0.0
  0
VERTEX
  5
E7
  8
LAYER_1
 62
   250
 10
-373.7710294391935
 20
46.29478064403227
 30
0.0
  0
VERTEX
  5
E8
  8
LAYER_1
 62
   250
 10
-373.8848409349774
 20
46.66996686473018
 30
0.0
  0
VERTEX
  5
E9
  8
LAYER_1
 62
   250
 10
-374.0696607753949
 20
47.01574046603921
 30
0.0
  0
VERTEX
  5
EA
  8
LAYER_1
 62
   250
 10
-374.3183864376269
 20
47.3188135623731
 30
0.0
  0
VERTEX
  5
EB
  8
LAYER_1
 62
   250
 10
-374.6214595339608
 20
47.5675392246051
 30
0.0
  0
VERTEX
  5
EC
  8
LAYER_1
 62
   250
 10
-374.9672331352698
 20
47.75235906502258
 30
0.0
  0
VERTEX
  5
ED
  8
LAYER_1
 62
   250
 10
-375.3424193559678
 20
47.86617056080647
 30
0.0
  0
SEQEND
  5
EE
  8
LAYER_1
 62
   250
  0
POLYLINE
  5
47
  8
LAYER_1
 62
   250
 66
     1
 10
0.0
 20
0.0
 30
0.0
 70
     1
  0
VERTEX
  5
EF
  8
LAYER_1
 62
   250
 10
-146.1281
 20
47.9046
 30
0.0
  0
VERTEX
  5
F0
  8
LAYER_1
 62
   250
 10
-146.5182806440322
 20
47.86617056080647
 30
0.0
  0
VERTEX
  5
F1
  8
LAYER_1
 62
   250
 10
-146.8934668647302
 20
47.75235906502257
 30
0.0
  0
VERTEX
  5
F2
  8
LAYER_1
 62
   250
 10
-147.2392404660392
 20
47.56753922460509
 30
0.0
  0
VERTEX
  5
F3
  8
LAYER_1
 62
   250
 10
-147.5423135623731
 20
47.31881356237309
 30
0.0
  0
VERTEX
  5
F4
  8
LAYER_1
 62
   250
 10
-147.7910392246051
 20
47.0157404660392
 30
0.0
  0
VERTEX
  5
F5
  8
LAYER_1
 62
   250
 10
-147.9758590650226
 20
46.66996686473018
 30
0.0
  0
VERTEX
  5
F6
  8
LAYER_1
 62
   250
 10
-148.0896705608064
 20
46.29478064403226
 30
0.0
  0
VERTEX
  5
F7
  8
LAYER_1
 62
   250
 10
-148.1281
 20
45.9046
 30
0.0
  0
VERTEX
  5
F8
  8
LAYER_1
 62
   250
 10
-148.0896705608064
 20
45.51441935596775
 30
0.0
  0
VERTEX
  5
F9
  8
LAYER_1
 62
   250
 10
-147.9758590650226
 20
45.13923313526982
 30
0.0
  0
VERTEX
  5
FA
  8
LAYER_1
 62
   250
 10
-147.7910392246051
 20
44.7934595339608
 30
0.0
  0
VERTEX
  5
FB
  8
LAYER_1
 62
   250
 10
-147.5423135623731
 20
44.49038643762691
 30
0.0
  0
VERTEX
  5
FC
  8
LAYER_1
 62
   250
 10
-147.2392404660392
 20
44.24166077539491
 30
0.0
  0
VERTEX
  5
FD
  8
LAYER_1
 62
   250
 10
-146.8934668647302
 20
44.05684093497743
 30
0.0
  0
VERTEX
  5
FE
  8
LAYER_1
 62
   250
 10
-146.5182806440322
 20
43.94302943919354
 30
0.0
  0
VERTEX
  5
FF
  8
LAYER_1
 62
   250
 10
-146.1281
 20
43.9046
 30
0.0
  0
VERTEX
  5
100
  8
LAYER_1
 62
   250
 10
-145.7379193559677
 20
43.94302943919354
 30
0.0
  0
VERTEX
  5
101
  8
LAYER_1
 62
   250
 10
-145.3627331352698
 20
44.05684093497743
 30
0.0
  0
VERTEX
  5
102
  8
LAYER_1
 62
   250
 10
-145.0169595339608
 20
44.24166077539491
 30
0.0
  0
VERTEX
  5
103
  8
LAYER_1
 62
   250
 10
-144.7138864376269
 20
44.49038643762691
 30
0.0
  0
VERTEX
  5
104
  8
LAYER_1
 62
   250
 10
-144.4651607753949
 20
44.7934595339608
 30
0.0
  0
VERTEX
  5
105
  8
LAYER_1
 62
   250
 10
-144.2803409349774
 20
45.13923313526983
 30
0.0
  0
VERTEX
  5
106
  8
LAYER_1
 62
   250
 10
-144.1665294391935
 20
45.51441935596775
 30
0.0
  0
VERTEX
  5
107
  8
LAYER_1
 62
   250
 10
-144.1281
 20
45.90460000000001
 30
0.0
  0
VERTEX
  5
108
  8
LAYER_1
 62
   250
 10
-144.1665294391935
 20
46.29478064403227
 30
0.0
  0
VERTEX
  5
109
  8
LAYER_1
 62
   250
 10
-144.2803409349774
 20
46.66996686473018
 30
0.0
  0
VERTEX
  5
10A
  8
LAYER_1
 62
   250
 10
-144.4651607753949
 20
47.01574046603921
 30
0.0
  0
VERTEX
  5
10B
  8
LAYER_1
 62
   250
 10
-144.7138864376269
 20
47.3188135623731
 30
0.0
  0
VERTEX
  5
10C
  8
LAYER_1
 62
   250
 10
-145.0169595339608
 20
47.5675392246051
 30
0.0
  0
VERTEX
  5
10D
  8
LAYER_1
 62
   250
 10
-145.3627331352698
 20
47.75235906502258
 30
0.0
  0
VERTEX
  5
10E
  8
LAYER_1
 62
   250
 10
-145.7379193559677
 20
47.86617056080647
 30
0.0
  0
SEQEND
  5
10F
  8
LAYER_1
 62
   250
  0
POLYLINE
  5
48
  8
LAYER_1
 62
   250
 66
     1
 10
0.0
 20
0.0
 30
0.0
 70
     1
  0
VERTEX
  5
110
  8
LAYER_1
 62
   250
 10
71.8859
 20
47.9046
 30
0.0
  0
VERTEX
  5
111
  8
LAYER_1
 62
   250
 10
71.49571935596775
 20
47.86617056080647
 30
0.0
  0
VERTEX
  5
112
  8
LAYER_1
 62
   250
 10
71.12053313526982
 20
47.75235906502257
 30
0.0
  0
VERTEX
  5
113
  8
LAYER_1
 62
   250
 10
70.7747595339608
 20
47.56753922460509
 30
0.0
  0
VERTEX
  5
114
  8
LAYER_1
 62
   250
 10
70.47168643762691
 20
47.31881356237309
 30
0.0
  0
VERTEX
  5
115
  8
LAYER_1
 62
   250
 10
70.22296077539491
 20
47.0157404660392
 30
0.0
  0
VERTEX
  5
116
  8
LAYER_1
 62
   250
 10
70.03814093497743
 20
46.66996686473018
 30
0.0
  0
VERTEX
  5
117
  8
LAYER_1
 62
   250
 10
69.92432943919354
 20
46.29478064403226
 30
0.0
  0
VERTEX
  5
118
  8
LAYER_1
 62
   250
 10
69.8859
 20
45.9046
 30
0.0
  0
VERTEX
  5
119
  8
LAYER_1
 62
   250
 10
69.92432943919354
 20
45.51441935596775
 30
0.0
  0
VERTEX
  5
11A
  8
LAYER_1
 62
   250
 10
70.03814093497743
 20
45.13923313526982
 30
0.0
  0
VERTEX
  5
11B
  8
LAYER_1
 62
   250
 10
70.22296077539491
 20
44.7934595339608
 30
0.0
  0
VERTEX
  5
11C
  8
LAYER_1
 62
   250
 10
70.47168643762691
 20
44.49038643762691
 30
0.0
  0
VERTEX
  5
11D
  8
LAYER_1
 62
   250
 10
70.7747595339608
 20
44.24166077539491
 30
0.0
  0
VERTEX
  5
11E
  8
LAYER_1
 62
   250
 10
71.12053313526982
 20
44.05684093497743
 30
0.0
  0
VERTEX
  5
11F
  8
LAYER_1
 62
   250
 10
71.49571935596775
 20
43.94302943919354
 30
0.0
  0
VERTEX
  5
120
  8
LAYER_1
 62
   250
 10
71.8859
 20
43.9046
 30
0.0
  0
VERTEX
  5
121
  8
LAYER_1
 62
   250
 10
72.27608064403226
 20
43.94302943919354
 30
0.0
  0
VERTEX
  5
122
  8
LAYER_1
 62
   250
 10
72.65126686473019
 20
44.05684093497743
 30
0.0
  0
VERTEX
  5
123
  8
LAYER_1
 62
   250
 10
72.99704046603921
 20
44.24166077539491
 30
0.0
  0
VERTEX
  5
124
  8
LAYER_1
 62
   250
 10
73.3001135623731
 20
44.49038643762691
 30
0.0
  0
VERTEX
  5
125
  8
LAYER_1
 62
   250
 10
73.5488392246051
 20
44.7934595339608
 30
0.0
  0
VERTEX
  5
126
  8
LAYER_1
 62
   250
 10
73.73365906502258
 20
45.13923313526983
 30
0.0
  0
VERTEX
  5
127
  8
LAYER_1
 62
   250
 10
73.84747056080647
 20
45.51441935596775
 30
0.0
  0
VERTEX
  5
128
  8
LAYER_1
 62
   250
 10
73.8859
 20
45.90460000000001
 30
0.0
  0
VERTEX
  5
129
  8
LAYER_1
 62
   250
 10
73.84747056080647
 20
46.29478064403227
 30
0.0
  0
VERTEX
  5
12A
  8
LAYER_1
 62
   250
 10
73.73365906502258
 20
46.66996686473018
 30
0.0
  0
VERTEX
  5
12B
  8
LAYER_1
 62
   250
 10
73.54883922460509
 20
47.01574046603921
 30
0.0
  0
VERTEX
  5
12C
  8
LAYER_1
 62
   250
 10
73.3001135623731
 20
47.3188135623731
 30
0.0
  0
VERTEX
  5
12D
  8
LAYER_1
 62
   250
 10
72.99704046603921
 20
47.5675392246051
 30
0.0
  0
VERTEX
  5
12E
  8
LAYER_1
 62
   250
 10
72.65126686473018
 20
47.75235906502258
 30
0.0
  0
VERTEX
  5
12F
  8
LAYER_1
 62
   250
 10
72.27608064403225
 20
47.86617056080647
 30
0.0
  0
SEQEND
  5
130
  8
LAYER_1
 62
   250
  0
POLYLINE
  5
49
  8
LAYER_1
 62
   250
 66
     1
 10
0.0
 20
0.0
 30
0.0
 70
     1
  0
VERTEX
  5
131
  8
LAYER_1
 62
   250
 10
272.7898
 20
47.9046
 30
0.0
  0
VERTEX
  5
132
  8
LAYER_1
 62
   250
 10
272.3996193559677
 20
47.86617056080647
 30
0.0
  0
VERTEX
  5
133
  8
LAYER_1
 62
   250
 10
272.0244331352698
 20
47.75235906502257
 30
0.0
  0
VERTEX
  5
134
  8
LAYER_1
 62
   250
 10
271.6786595339608
 20
47.56753922460509
 30
0.0
  0
VERTEX
  5
135
  8
LAYER_1
 62
   250
 10
271.3755864376269
 20
47.31881356237309
 30
0.0
  0
VERTEX
  5
136
  8
LAYER_1
 62
   250
 10
271.1268607753949
 20
47.0157404660392
 30
0.0
  0
VERTEX
  5
137
  8
LAYER_1
 62
   250
 10
270.9420409349775
 20
46.66996686473018
 30
0.0
  0
VERTEX
  5
138
  8
LAYER_1
 62
   250
 10
270.8282294391935
 20
46.29478064403226
 30
0.0
  0
VERTEX
  5
139
  8
LAYER_1
 62
   250
 10
270.7898
 20
45.9046
 30
0.0
  0
VERTEX
  5
13A
  8
LAYER_1
 62
   250
 10
270.8282294391935
 20
45.51441935596775
 30
0.0
  0
VERTEX
  5
13B
  8
LAYER_1
 62
   250
 10
270.9420409349775
 20
45.13923313526982
 30
0.0
  0
VERTEX
  5
13C
  8
LAYER_1
 62
   250
 10
271.1268607753949
 20
44.7934595339608
 30
0.0
  0
VERTEX
  5
13D
  8
LAYER_1
 62
   250
 10
271.3755864376269
 20
44.49038643762691
 30
0.0
  0
VERTEX
  5
13E
  8
LAYER_1
 62
   250
 10
271.6786595339608
 20
44.24166077539491
 30
0.0
  0
VERTEX
  5
13F
  8
LAYER_1
 62
   250
 10
272.0244331352698
 20
44.05684093497743
 30
0.0
  0
VERTEX
  5
140
  8
LAYER_1
 62
   250
 10
272.3996193559678
 20
43.94302943919354
 30
0.0
  0
VERTEX
  5
141
  8
LAYER_1
 62
   250
 10
272.7898
 20
43.9046
 30
0.0
  0
VERTEX
  5
142
  8
LAYER_1
 62
   250
 10
273.1799806440323
 20
43.94302943919354
 30
0.0
  0
VERTEX
  5
143
  8
LAYER_1
 62
   250
 10
273.5551668647302
 20
44.05684093497743
 30
0.0
  0
VERTEX
  5
144
  8
LAYER_1
 62
   250
 10
273.9009404660392
 20
44.24166077539491
 30
0.0
  0
VERTEX
  5
145
  8
LAYER_1
 62
   250
 10
274.2040135623731
 20
44.49038643762691
 30
0.0
  0
VERTEX
  5
146
  8
LAYER_1
 62
   250
 10
274.4527392246051
 20
44.7934595339608
 30
0.0
  0
VERTEX
  5
147
  8
LAYER_1
 62
   250
 10
274.6375590650226
 20
45.13923313526983
 30
0.0
  0
VERTEX
  5
148
  8
LAYER_1
 62
   250
 10
274.7513705608065
 20
45.51441935596775
 30
0.0
  0
VERTEX
  5
149
  8
LAYER_1
 62
   250
 10
274.7898
 20
45.90460000000001
 30
0.0
  0
VERTEX
  5
14A
  8
LAYER_1
 62
   250
 10
274.7513705608065
 20
46.29478064403227
 30
0.0
  0
VERTEX
  5
14B
  8
LAYER_1
 62
   250
 10
274.6375590650226
 20
46.66996686473018
 30
0.0
  0
VERTEX
  5
14C
  8
LAYER_1
 62
   250
 10
274.4527392246051
 20
47.01574046603921
 30
0.0
  0
VERTEX
  5
14D
  8
LAYER_1
 62
   250
 10
274.2040135623731
 20
47.3188135623731
 30
0.0
  0
VERTEX
  5
14E
  8
LAYER_1
 62
   250
 10
273.9009404660392
 20
47.5675392246051
 30
0.0
  0
VERTEX
  5
14F
  8
LAYER_1
 62
   250
 10
273.5551668647302
 20
47.75235906502258
 30
0.0
  0
VERTEX
  5
150
  8
LAYER_1
 62
   250
 10
273.1799806440322
 20
47.86617056080647
 30
0.0
  0
SEQEND
  5
151
  8
LAYER_1
 62
   250
  0
POLYLINE
  5
4A
  8
LAYER_1
 62
   250
 66
     1
 10
0.0
 20
0.0
 30
0.0
 70
     1
  0
VERTEX
  5
152
  8
LAYER_1
 62
   250
 10
408.5656
 20
47.9046
 30
0.0
  0
VERTEX
  5
153
  8
LAYER_1
 62
   250
 10
408.1754193559677
 20
47.86617056080647
 30
0.0
  0
VERTEX
  5
154
  8
LAYER_1
 62
   250
 10
407.8002331352698
 20
47.75235906502257
 30
0.0
  0
VERTEX
  5
155
  8
LAYER_1
 62
   250
 10
407.4544595339608
 20
47.56753922460509
 30
0.0
  0
VERTEX
  5
156
  8
LAYER_1
 62
   250
 10
407.1513864376269
 20
47.31881356237309
 30
0.0
  0
VERTEX
  5
157
  8
LAYER_1
 62
   250
 10
406.9026607753949
 20
47.0157404660392
 30
0.0
  0
VERTEX
  5
158
  8
LAYER_1
 62
   250
 10
406.7178409349775
 20
46.66996686473018
 30
0.0
  0
VERTEX
  5
159
  8
LAYER_1
 62
   250
 10
406.6040294391935
 20
46.29478064403226
 30
0.0
  0
VERTEX
  5
15A
  8
LAYER_1
 62
   250
 10
406.5656
 20
45.9046
 30
0.0
  0
VERTEX
  5
15B
  8
LAYER_1
 62
   250
 10
406.6040294391935
 20
45.51441935596775
 30
0.0
  0
VERTEX
  5
15C
  8
LAYER_1
 62
   250
 10
406.7178409349775
 20
45.13923313526982
 30
0.0
  0
VERTEX
  5
15D
  8
LAYER_1
 62
   250
 10
406.9026607753949
 20
44.7934595339608
 30
0.0
  0
VERTEX
  5
15E
  8
LAYER_1
 62
   250
 10
407.1513864376269
 20
44.49038643762691
 30
0.0
  0
VERTEX
  5
15F
  8
LAYER_1
 62
   250
 10
407.4544595339608
 20
44.24166077539491
 30
0.0
  0
VERTEX
  5
160
  8
LAYER_1
 62
   250
 10
407.8002331352698
 20
44.05684093497743
 30
0.0
  0
VERTEX
  5
161
  8
LAYER_1
 62
   250
 10
408.1754193559678
 20
43.94302943919354
 30
0.0
  0
VERTEX
  5
162
  8
LAYER_1
 62
   250
 10
408.5656
 20
43.9046
 30
0.0
  0
VERTEX
  5
163
  8
LAYER_1
 62
   250
 10
408.9557806440323
 20
43.94302943919354
 30
0.0
  0
VERTEX
  5
164
  8
LAYER_1
 62
   250
 10
409.3309668647302
 20
44.05684093497743
 30
0.0
  0
VERTEX
  5
165
  8
LAYER_1
 62
   250
 10
409.6767404660392
 20
44.24166077539491
 30
0.0
  0
VERTEX
  5
166
  8
LAYER_1
 62
   250
 10
409.9798135623731
 20
44.49038643762691
 30
0.0
  0
VERTEX
  5
167
  8
LAYER_1
 62
   250
 10
410.2285392246051
 20
44.7934595339608
 30
0.0
  0
VERTEX
  5
168
  8
LAYER_1
 62
   250
 10
410.4133590650226
 20
45.13923313526983
 30
0.0
  0
VERTEX
  5
169
  8
LAYER_1
 62
   250
 10
410.5271705608065
 20
45.51441935596775
 30
0.0
  0
VERTEX
  5
16A
  8
LAYER_1
 62
   250
 10
410.5656
 20
45.90460000000001
 30
0.0
  0
VERTEX
  5
16B
  8
LAYER_1
 62
   250
 10
410.5271705608065
 20
46.29478064403227
 30
0.0
  0
VERTEX
  5
16C
  8
LAYER_1
 62
   250
 10
410.4133590650226
 20
46.66996686473018
 30
0.0
  0
VERTEX
  5
16D
  8
LAYER_1
 62
   250
 10
410.2285392246051
 20
47.01574046603921
 30
0.0
  0
VERTEX
  5
16E
  8
LAYER_1
 62
   250
 10
409.9798135623731
 20
47.3188135623731
 30
0.0
  0
VERTEX
  5
16F
  8
LAYER_1
 62
   250
 10
409.6767404660392
 20
47.5675392246051
 30
0.0
  0
VERTEX
  5
170
  8
LAYER_1
 62
   250
 10
409.3309668647302
 20
47.75235906502258
 30
0.0
  0
VERTEX
  5
171
  8
LAYER_1
 62
   250
 10
408.9557806440322
 20
47.86617056080647
 30
0.0
  0
SEQEND
  5
172
  8
LAYER_1
 62
   250
  0
POLYLINE
  5
4B
  8
LAYER_1
 62
   250
 66
     1
 10
0.0
 20
0.0
 30
0.0
 70
     1
  0
VERTEX
  5
173
  8
LAYER_1
 62
   250
 10
-553.7048
 20
-189.7955
 30
0.0
  0
VERTEX
  5
174
  8
LAYER_1
 62
   250
 10
-554.0949806440323
 20
-189.8339294391936
 30
0.0
  0
VERTEX
  5
175
  8
LAYER_1
 62
   250
 10
-554.4701668647301
 20
-189.9477409349774
 30
0.0
  0
VERTEX
  5
176
  8
LAYER_1
 62
   250
 10
-554.8159404660391
 20
-190.1325607753949
 30
0.0
  0
VERTEX
  5
177
  8
LAYER_1
 62
   250
 10
-555.1190135623731
 20
-190.3812864376269
 30
0.0
  0
VERTEX
  5
178
  8
LAYER_1
 62
   250
 10
-555.3677392246051
 20
-190.6843595339608
 30
0.0
  0
VERTEX
  5
179
  8
LAYER_1
 62
   250
 10
-555.5525590650226
 20
-191.0301331352698
 30
0.0
  0
VERTEX
  5
17A
  8
LAYER_1
 62
   250
 10
-555.6663705608064
 20
-191.4053193559677
 30
0.0
  0
VERTEX
  5
17B
  8
LAYER_1
 62
   250
 10
-555.7048
 20
-191.7955
 30
0.0
  0
VERTEX
  5
17C
  8
LAYER_1
 62
   250
 10
-555.6663705608064
 20
-192.1856806440323
 30
0.0
  0
VERTEX
  5
17D
  8
LAYER_1
 62
   250
 10
-555.5525590650226
 20
-192.5608668647302
 30
0.0
  0
VERTEX
  5
17E
  8
LAYER_1
 62
   250
 10
-555.3677392246051
 20
-192.9066404660392
 30
0.0
  0
VERTEX
  5
17F
  8
LAYER_1
 62
   250
 10
-555.1190135623731
 20
-193.2097135623731
 30
0.0
  0
VERTEX
  5
180
  8
LAYER_1
 62
   250
 10
-554.8159404660391
 20
-193.4584392246051
 30
0.0
  0
VERTEX
  5
181
  8
LAYER_1
 62
   250
 10
-554.4701668647301
 20
-193.6432590650226
 30
0.0
  0
VERTEX
  5
182
  8
LAYER_1
 62
   250
 10
-554.0949806440323
 20
-193.7570705608065
 30
0.0
  0
VERTEX
  5
183
  8
LAYER_1
 62
   250
 10
-553.7048
 20
-193.7955
 30
0.0
  0
VERTEX
  5
184
  8
LAYER_1
 62
   250
 10
-553.3146193559677
 20
-193.7570705608065
 30
0.0
  0
VERTEX
  5
185
  8
LAYER_1
 62
   250
 10
-552.9394331352698
 20
-193.6432590650226
 30
0.0
  0
VERTEX
  5
186
  8
LAYER_1
 62
   250
 10
-552.5936595339608
 20
-193.4584392246051
 30
0.0
  0
VERTEX
  5
187
  8
LAYER_1
 62
   250
 10
-552.2905864376269
 20
-193.2097135623731
 30
0.0
  0
VERTEX
  5
188
  8
LAYER_1
 62
   250
 10
-552.0418607753949
 20
-192.9066404660392
 30
0.0
  0
VERTEX
  5
189
  8
LAYER_1
 62
   250
 10
-551.8570409349774
 20
-192.5608668647302
 30
0.0
  0
VERTEX
  5
18A
  8
LAYER_1
 62
   250
 10
-551.7432294391936
 20
-192.1856806440323
 30
0.0
  0
VERTEX
  5
18B
  8
LAYER_1
 62
   250
 10
-551.7048
 20
-191.7955
 30
0.0
  0
VERTEX
  5
18C
  8
LAYER_1
 62
   250
 10
-551.7432294391936
 20
-191.4053193559677
 30
0.0
  0
VERTEX
  5
18D
  8
LAYER_1
 62
   250
 10
-551.8570409349774
 20
-191.0301331352698
 30
0.0
  0
VERTEX
  5
18E
  8
LAYER_1
 62
   250
 10
-552.0418607753949
 20
-190.6843595339608
 30
0.0
  0
VERTEX
  5
18F
  8
LAYER_1
 62
   250
 10
-552.2905864376269
 20
-190.3812864376269
 30
0.0
  0
VERTEX
  5
190
  8
LAYER_1
 62
   250
 10
-552.5936595339608
 20
-190.1325607753949
 30
0.0
  0
VERTEX
  5
191
  8
LAYER_1
 62
   250
 10
-552.9394331352698
 20
-189.9477409349774
 30
0.0
  0
VERTEX
  5
192
  8
LAYER_1
 62
   250
 10
-553.3146193559677
 20
-189.8339294391936
 30
0.0
  0
SEQEND
  5
193
  8
LAYER_1
 62
   250
  0
POLYLINE
  5
4C
  8
LAYER_1
 62
   250
 66
     1
 10
0.0
 20
0.0
 30
0.0
 70
     1
  0
VERTEX
  5
194
  8
LAYER_1
 62
   250
 10
-375.7326
 20
-189.7955
 30
0.0
  0
VERTEX
  5
195
  8
LAYER_1
 62
   250
 10
-376.1227806440323
 20
-189.8339294391936
 30
0.0
  0
VERTEX
  5
196
  8
LAYER_1
 62
   250
 10
-376.4979668647302
 20
-189.9477409349774
 30
0.0
  0
VERTEX
  5
197
  8
LAYER_1
 62
   250
 10
-376.8437404660392
 20
-190.1325607753949
 30
0.0
  0
VERTEX
  5
198
  8
LAYER_1
 62
   250
 10
-377.1468135623731
 20
-190.3812864376269
 30
0.0
  0
VERTEX
  5
199
  8
LAYER_1
 62
   250
 10
-377.3955392246051
 20
-190.6843595339608
 30
0.0
  0
VERTEX
  5
19A
  8
LAYER_1
 62
   250
 10
-377.5803590650225
 20
-191.0301331352698
 30
0.0
  0
VERTEX
  5
19B
  8
LAYER_1
 62
   250
 10
-377.6941705608065
 20
-191.4053193559677
 30
0.0
  0
VERTEX
  5
19C
  8
LAYER_1
 62
   250
 10
-377.7326
 20
-191.7955
 30
0.0
  0
VERTEX
  5
19D
  8
LAYER_1
 62
   250
 10
-377.6941705608065
 20
-192.1856806440323
 30
0.0
  0
VERTEX
  5
19E
  8
LAYER_1
 62
   250
 10
-377.5803590650225
 20
-192.5608668647302
 30
0.0
  0
VERTEX
  5
19F
  8
LAYER_1
 62
   250
 10
-377.3955392246051
 20
-192.9066404660392
 30
0.0
  0
VERTEX
  5
1A0
  8
LAYER_1
 62
   250
 10
-377.1468135623731
 20
-193.2097135623731
 30
0.0
  0
VERTEX
  5
1A1
  8
LAYER_1
 62
   250
 10
-376.8437404660392
 20
-193.4584392246051
 30
0.0
  0
VERTEX
  5
1A2
  8
LAYER_1
 62
   250
 10
-376.4979668647302
 20
-193.6432590650226
 30
0.0
  0
VERTEX
  5
1A3
  8
LAYER_1
 62
   250
 10
-376.1227806440322
 20
-193.7570705608065
 30
0.0
  0
VERTEX
  5
1A4
  8
LAYER_1
 62
   250
 10
-375.7326
 20
-193.7955
 30
0.0
  0
VERTEX
  5
1A5
  8
LAYER_1
 62
   250
 10
-375.3424193559677
 20
-193.7570705608065
 30
0.0
  0
VERTEX
  5
1A6
  8
LAYER_1
 62
   250
 10
-374.9672331352698
 20
-193.6432590650226
 30
0.0
  0
VERTEX
  5
1A7
  8
LAYER_1
 62
   250
 10
-374.6214595339608
 20
-193.4584392246051
 30
0.0
  0
VERTEX
  5
1A8
  8
LAYER_1
 62
   250
 10
-374.3183864376269
 20
-193.2097135623731
 30
0.0
  0
VERTEX
  5
1A9
  8
LAYER_1
 62
   250
 10
-374.0696607753949
 20
-192.9066404660392
 30
0.0
  0
VERTEX
  5
1AA
  8
LAYER_1
 62
   250
 10
-373.8848409349774
 20
-192.5608668647302
 30
0.0
  0
VERTEX
  5
1AB
  8
LAYER_1
 62
   250
 10
-373.7710294391935
 20
-192.1856806440323
 30
0.0
  0
VERTEX
  5
1AC
  8
LAYER_1
 62
   250
 10
-373.7326
 20
-191.7955
 30
0.0
  0
VERTEX
  5
1AD
  8
LAYER_1
 62
   250
 10
-373.7710294391935
 20
-191.4053193559677
 30
0.0
  0
VERTEX
  5
1AE
  8
LAYER_1
 62
   250
 10
-373.8848409349774
 20
-191.0301331352698
 30
0.0
  0
VERTEX
  5
1AF
  8
LAYER_1
 62
   250
 10
-374.0696607753949
 20
-190.6843595339608
 30
0.0
  0
VERTEX
  5
1B0
  8
LAYER_1
 62
   250
 10
-374.3183864376269
 20
-190.3812864376269
 30
0.0
  0
VERTEX
  5
1B1
  8
LAYER_1
 62
   250
 10
-374.6214595339608
 20
-190.1325607753949
 30
0.0
  0
VERTEX
  5
1B2
  8
LAYER_1
 62
   250
 10
-374.9672331352698
 20
-189.9477409349774
 30
0.0
  0
VERTEX
  5
1B3
  8
LAYER_1
 62
   250
 10
-375.3424193559678
 20
-189.8339294391936
 30
0.0
  0
SEQEND
  5
1B4
  8
LAYER_1
 62
   250
  0
POLYLINE
  5
4D
  8
LAYER_1
 62
   250
 66
     1
 10
0.0
 20
0.0
 30
0.0
 70
     1
  0
VERTEX
  5
1B5
  8
LAYER_1
 62
   250
 10
-146.1281
 20
-189.7955
 30
0.0
  0
VERTEX
  5
1B6
  8
LAYER_1
 62
   250
 10
-146.5182806440322
 20
-189.8339294391936
 30
0.0
  0
VERTEX
  5
1B7
  8
LAYER_1
 62
   250
 10
-146.8934668647302
 20
-189.9477409349774
 30
0.0
  0
VERTEX
  5
1B8
  8
LAYER_1
 62
   250
 10
-147.2392404660392
 20
-190.1325607753949
 30
0.0
  0
VERTEX
  5
1B9
  8
LAYER_1
 62
   250
 10
-147.5423135623731
 20
-190.3812864376269
 30
0.0
  0
VERTEX
  5
1BA
  8
LAYER_1
 62
   250
 10
-147.7910392246051
 20
-190.6843595339608
 30
0.0
  0
VERTEX
  5
1BB
  8
LAYER_1
 62
   250
 10
-147.9758590650226
 20
-191.0301331352698
 30
0.0
  0
VERTEX
  5
1BC
  8
LAYER_1
 62
   250
 10
-148.0896705608064
 20
-191.4053193559677
 30
0.0
  0
VERTEX
  5
1BD
  8
LAYER_1
 62
   250
 10
-148.1281
 20
-191.7955
 30
0.0
  0
VERTEX
  5
1BE
  8
LAYER_1
 62
   250
 10
-148.0896705608064
 20
-192.1856806440323
 30
0.0
  0
VERTEX
  5
1BF
  8
LAYER_1
 62
   250
 10
-147.9758590650226
 20
-192.5608668647302
 30
0.0
  0
VERTEX
  5
1C0
  8
LAYER_1
 62
   250
 10
-147.7910392246051
 20
-192.9066404660392
 30
0.0
  0
VERTEX
  5
1C1
  8
LAYER_1
 62
   250
 10
-147.5423135623731
 20
-193.2097135623731
 30
0.0
  0
VERTEX
  5
1C2
  8
LAYER_1
 62
   250
 10
-147.2392404660392
 20
-193.4584392246051
 30
0.0
  0
VERTEX
  5
1C3
  8
LAYER_1
 62
   250
 10
-146.8934668647302
 20
-193.6432590650226
 30
0.0
  0
VERTEX
  5
1C4
  8
LAYER_1
 62
   250
 10
-146.5182806440322
 20
-193.7570705608065
 30
0.0
  0
VERTEX
  5
1C5
  8
LAYER_1
 62
   250
 10
-146.1281
 20
-193.7955
 30
0.0
  0
VERTEX
  5
1C6
  8
LAYER_1
 62
   250
 10
-145.7379193559677
 20
-193.7570705608065
 30
0.0
  0
VERTEX
  5
1C7
  8
LAYER_1
 62
   250
 10
-145.3627331352698
 20
-193.6432590650226
 30
0.0
  0
VERTEX
  5
1C8
  8
LAYER_1
 62
   250
 10
-145.0169595339608
 20
-193.4584392246051
 30
0.0
  0
VERTEX
  5
1C9
  8
LAYER_1
 62
   250
 10
-144.7138864376269
 20
-193.2097135623731
 30
0.0
  0
VERTEX
  5
1CA
  8
LAYER_1
 62
   250
 10
-144.4651607753949
 20
-192.9066404660392
 30
0.0
  0
VERTEX
  5
1CB
  8
LAYER_1
 62
   250
 10
-144.2803409349774
 20
-192.5608668647302
 30
0.0
  0
VERTEX
  5
1CC
  8
LAYER_1
 62
   250
 10
-144.1665294391935
 20
-192.1856806440323
 30
0.0
  0
VERTEX
  5
1CD
  8
LAYER_1
 62
   250
 10
-144.1281
 20
-191.7955
 30
0.0
  0
VERTEX
  5
1CE
  8
LAYER_1
 62
   250
 10
-144.1665294391935
 20
-191.4053193559677
 30
0.0
  0
VERTEX
  5
1CF
  8
LAYER_1
 62
   250
 10
-144.2803409349774
 20
-191.0301331352698
 30
0.0
  0
VERTEX
  5
1D0
  8
LAYER_1
 62
   250
 10
-144.4651607753949
 20
-190.6843595339608
 30
0.0
  0
VERTEX
  5
1D1
  8
LAYER_1
 62
   250
 10
-144.7138864376269
 20
-190.3812864376269
 30
0.0
  0
VERTEX
  5
1D2
  8
LAYER_1
 62
   250
 10
-145.0169595339608
 20
-190.1325607753949
 30
0.0
  0
VERTEX
  5
1D3
  8
LAYER_1
 62
   250
 10
-145.3627331352698
 20
-189.9477409349774
 30
0.0
  0
VERTEX
  5
1D4
  8
LAYER_1
 62
   250
 10
-145.7379193559677
 20
-189.8339294391936
 30
0.0
  0
SEQEND
  5
1D5
  8
LAYER_1
 62
   250
  0
POLYLINE
  5
4E
  8
LAYER_1
 62
   250
 66
     1
 10
0.0
 20
0.0
 30
0.0
 70
     1
  0
VERTEX
  5
1D6
  8
LAYER_1
 62
   250
 10
71.8859
 20
-189.7955
 30
0.0
  0
VERTEX
  5
1D7
  8
LAYER_1
 62
   250
 10
71.49571935596775
 20
-189.8339294391936
 30
0.0
  0
VERTEX
  5
1D8
  8
LAYER_1
 62
   250
 10
71.12053313526982
 20
-189.9477409349774
 30
0.0
  0
VERTEX
  5
1D9
  8
LAYER_1
 62
   250
 10
70.7747595339608
 20
-190.1325607753949
 30
0.0
  0
VERTEX
  5
1DA
  8
LAYER_1
 62
   250
 10
70.47168643762691
 20
-190.3812864376269
 30
0.0
  0
VERTEX
  5
1DB
  8
LAYER_1
 62
   250
 10
70.22296077539491
 20
-190.6843595339608
 30
0.0
  0
VERTEX
  5
1DC
  8
LAYER_1
 62
   250
 10
70.03814093497743
 20
-191.0301331352698
 30
0.0
  0
VERTEX
  5
1DD
  8
LAYER_1
 62
   250
 10
69.92432943919354
 20
-191.4053193559677
 30
0.0
  0
VERTEX
  5
1DE
  8
LAYER_1
 62
   250
 10
69.8859
 20
-191.7955
 30
0.0
  0
VERTEX
  5
1DF
  8
LAYER_1
 62
   250
 10
69.92432943919354
 20
-192.1856806440323
 30
0.0
  0
VERTEX
  5
1E0
  8
LAYER_1
 62
   250
 10
70.03814093497743
 20
-192.5608668647302
 30
0.0
  0
VERTEX
  5
1E1
  8
LAYER_1
 62
   250
 10
70.22296077539491
 20
-192.9066404660392
 30
0.0
  0
VERTEX
  5
1E2
  8
LAYER_1
 62
   250
 10
70.47168643762691
 20
-193.2097135623731
 30
0.0
  0
VERTEX
  5
1E3
  8
LAYER_1
 62
   250
 10
70.7747595339608
 20
-193.4584392246051
 30
0.0
  0
VERTEX
  5
1E4
  8
LAYER_1
 62
   250
 10
71.12053313526982
 20
-193.6432590650226
 30
0.0
  0
VERTEX
  5
1E5
  8
LAYER_1
 62
   250
 10
71.49571935596775
 20
-193.7570705608065
 30
0.0
  0
VERTEX
  5
1E6
  8
LAYER_1
 62
   250
 10
71.8859
 20
-193.7955
 30
0.0
  0
VERTEX
  5
1E7
  8
LAYER_1
 62
   250
 10
72.27608064403226
 20
-193.7570705608065
 30
0.0
  0
VERTEX
  5
1E8
  8
LAYER_1
 62
   250
 10
72.65126686473019
 20
-193.6432590650226
 30
0.0
  0
VERTEX
  5
1E9
  8
LAYER_1
 62
   250
 10
72.99704046603921
 20
-193.4584392246051
 30
0.0
  0
VERTEX
  5
1EA
  8
LAYER_1
 62
   250
 10
73.3001135623731
 20
-193.2097135623731
 30
0.0
  0
VERTEX
  5
1EB
  8
LAYER_1
 62
   250
 10
73.5488392246051
 20
-192.9066404660392
 30
0.0
  0
VERTEX
  5
1EC
  8
LAYER_1
 62
   250
 10
73.73365906502258
 20
-192.5608668647302
 30
0.0
  0
VERTEX
  5
1ED
  8
LAYER_1
 62
   250
 10
73.84747056080647
 20
-192.1856806440323
 30
0.0
  0
VERTEX
  5
1EE
  8
LAYER_1
 62
   250
 10
73.8859
 20
-191.7955
 30
0.0
  0
VERTEX
  5
1EF
  8
LAYER_1
 62
   250
 10
73.84747056080647
 20
-191.4053193559677
 30
0.0
  0
VERTEX
  5
1F0
  8
LAYER_1
 62
   250
 10
73.73365906502258
 20
-191.0301331352698
 30
0.0
  0
VERTEX
  5
1F1
  8
LAYER_1
 62
   250
 10
73.54883922460509
 20
-190.6843595339608
 30
0.0
  0
VERTEX
  5
1F2
  8
LAYER_1
 62
   250
 10
73.3001135623731
 20
-190.3812864376269
 30
0.0
  0
VERTEX
  5
1F3
  8
LAYER_1
 62
   250
 10
72.99704046603921
 20
-190.1325607753949
 30
0.0
  0
VERTEX
  5
1F4
  8
LAYER_1
 62
   250
 10
72.65126686473018
 20
-189.9477409349774
 30
0.0
  0
VERTEX
  5
1F5
  8
LAYER_1
 62
   250
 10
72.27608064403225
 20
-189.8339294391936
 30
0.0
  0
SEQEND
  5
1F6
  8
LAYER_1
 62
   250
  0
POLYLINE
  5
4F
  8
LAYER_1
 62
   250
 66
     1
 10
0.0
 20
0.0
 30
0.0
 70
     1
  0
VERTEX
  5
1F7
  8
LAYER_1
 62
   250
 10
272.7898
 20
-189.7955
 30
0.0
  0
VERTEX
  5
1F8
  8
LAYER_1
 62
   250
 10
272.3996193559677
 20
-189.8339294391936
 30
0.0
  0
VERTEX
  5
1F9
  8
LAYER_1
 62
   250
 10
272.0244331352698
 20
-189.9477409349774
 30
0.0
  0
VERTEX
  5
1FA
  8
LAYER_1
 62
   250
 10
271.6786595339608
 20
-190.1325607753949
 30
0.0
  0
VERTEX
  5
1FB
  8
LAYER_1
 62
   250
 10
271.3755864376269
 20
-190.3812864376269
 30
0.0
  0
VERTEX
  5
1FC
  8
LAYER_1
 62
   250
 10
271.1268607753949
 20
-190.6843595339608
 30
0.0
  0
VERTEX
  5
1FD
  8
LAYER_1
 62
   250
 10
270.9420409349775
 20
-191.0301331352698
 30
0.0
  0
VERTEX
  5
1FE
  8
LAYER_1
 62
   250
 10
270.8282294391935
 20
-191.4053193559677
 30
0.0
  0
VERTEX
  5
1FF
  8
LAYER_1
 62
   250
 10
270.7898
 20
-191.7955
 30
0.0
  0
VERTEX
  5
200
  8
LAYER_1
 62
   250
 10
270.8282294391935
 20
-192.1856806440323
 30
0.0
  0
VERTEX
  5
201
  8
LAYER_1
 62
   250
 10
270.9420409349775
 20
-192.5608668647302
 30
0.0
  0
VERTEX
  5
202
  8
LAYER_1
 62
   250
 10
271.1268607753949
 20
-192.9066404660392
 30
0.0
  0
VERTEX
  5
203
  8
LAYER_1
 62
   250
 10
271.3755864376269
 20
-193.2097135623731
 30
0.0
  0
VERTEX
  5
204
  8
LAYER_1
 62
   250
 10
271.6786595339608
 20
-193.4584392246051
 30
0.0
  0
VERTEX
  5
205
  8
LAYER_1
 62
   250
 10
272.0244331352698
 20
-193.6432590650226
 30
0.0
  0
VERTEX
  5
206
  8
LAYER_1
 62
   250
 10
272.3996193559678
 20
-193.7570705608065
 30
0.0
  0
VERTEX
  5
207
  8
LAYER_1
 62
   250
 10
272.7898
 20
-193.7955
 30
0.0
  0
VERTEX
  5
208
  8
LAYER_1
 62
   250
 10
273.1799806440323
 20
-193.7570705608065
 30
0.0
  0
VERTEX
  5
209
  8
LAYER_1
 62
   250
 10
273.5551668647302
 20
-193.6432590650226
 30
0.0
  0
VERTEX
  5
20A
  8
LAYER_1
 62
   250
 10
273.9009404660392
 20
-193.4584392246051
 30
0.0
  0
VERTEX
  5
20B
  8
LAYER_1
 62
   250
 10
274.2040135623731
 20
-193.2097135623731
 30
0.0
  0
VERTEX
  5
20C
  8
LAYER_1
 62
   250
 10
274.4527392246051
 20
-192.9066404660392
 30
0.0
  0
VERTEX
  5
20D
  8
LAYER_1
 62
   250
 10
274.6375590650226
 20
-192.5608668647302
 30
0.0
  0
VERTEX
  5
20E
  8
LAYER_1
 62
   250
 10
274.7513705608065
 20
-192.1856806440323
 30
0.0
  0
VERTEX
  5
20F
  8
LAYER_1
 62
   250
 10
274.7898
 20
-191.7955
 30
0.0
  0
VERTEX
  5
210
  8
LAYER_1
 62
   250
 10
274.7513705608065
 20
-191.4053193559677
 30
0.0
  0
VERTEX
  5
211
  8
LAYER_1
 62
   250
 10
274.6375590650226
 20
-191.0301331352698
 30
0.0
  0
VERTEX
  5
212
  8
LAYER_1
 62
   250
 10
274.4527392246051
 20
-190.6843595339608
 30
0.0
  0
VERTEX
  5
213
  8
LAYER_1
 62
   250
 10
274.2040135623731
 20
-190.3812864376269
 30
0.0
  0
VERTEX
  5
214
  8
LAYER_1
 62
   250
 10
273.9009404660392
 20
-190.1325607753949
 30
0.0
  0
VERTEX
  5
215
  8
LAYER_1
 62
   250
 10
273.5551668647302
 20
-189.9477409349774
 30
0.0
  0
VERTEX
  5
216
  8
LAYER_1
 62
   250
 10
273.1799806440322
 20
-189.8339294391936
 30
0.0
  0
SEQEND
  5
217
  8
LAYER_1
 62
   250
  0
POLYLINE
  5
50
  8
LAYER_1
 62
   250
 66
     1
 10
0.0
 20
0.0
 30
0.0
 70
     1
  0
VERTEX
  5
218
  8
LAYER_1
 62
   250
 10
408.5656
 20
-189.7955
 30
0.0
  0
VERTEX
  5
219
  8
LAYER_1
 62
   250
 10
408.1754193559677
 20
-189.8339294391936
 30
0.0
  0
VERTEX
  5
21A
  8
LAYER_1
 62
   250
 10
407.8002331352698
 20
-189.9477409349774
 30
0.0
  0
VERTEX
  5
21B
  8
LAYER_1
 62
   250
 10
407.4544595339608
 20
-190.1325607753949
 30
0.0
  0
VERTEX
  5
21C
  8
LAYER_1
 62
   250
 10
407.1513864376269
 20
-190.3812864376269
 30
0.0
  0
VERTEX
  5
21D
  8
LAYER_1
 62
   250
 10
406.9026607753949
 20
-190.6843595339608
 30
0.0
  0
VERTEX
  5
21E
  8
LAYER_1
 62
   250
 10
406.7178409349775
 20
-191.0301331352698
 30
0.0
  0
VERTEX
  5
21F
  8
LAYER_1
 62
   250
 10
406.6040294391935
 20
-191.4053193559677
 30
0.0
  0
VERTEX
  5
220
  8
LAYER_1
 62
   250
 10
406.5656
 20
-191.7955
 30
0.0
  0
VERTEX
  5
221
  8
LAYER_1
 62
   250
 10
406.6040294391935
 20
-192.1856806440323
 30
0.0
  0
VERTEX
  5
222
  8
LAYER_1
 62
   250
 10
406.7178409349775
 20
-192.5608668647302
 30
0.0
  0
VERTEX
  5
223
  8
LAYER_1
 62
   250
 10
406.9026607753949
 20
-192.9066404660392
 30
0.0
  0
VERTEX
  5
224
  8
LAYER_1
 62
   250
 10
407.1513864376269
 20
-193.2097135623731
 30
0.0
  0
VERTEX
  5
225
  8
LAYER_1
 62
   250
 10
407.4544595339608
 20
-193.4584392246051
 30
0.0
  0
VERTEX
  5
226
  8
LAYER_1
 62
   250
 10
407.8002331352698
 20
-193.6432590650226
 30
0.0
  0
VERTEX
  5
227
  8
LAYER_1
 62
   250
 10
408.1754193559678
 20
-193.7570705608065
 30
0.0
  0
VERTEX
  5
228
  8
LAYER_1
 62
   250
 10
408.5656
 20
-193.7955
 30
0.0
  0
VERTEX
  5
229
  8
LAYER_1
 62
   250
 10
408.9557806440323
 20
-193.7570705608065
 30
0.0
  0
VERTEX
  5
22A
  8
LAYER_1
 62
   250
 10
409.3309668647302
 20
-193.6432590650226
 30
0.0
  0
VERTEX
  5
22B
  8
LAYER_1
 62
   250
 10
409.6767404660392
 20
-193.4584392246051
 30
0.0
  0
VERTEX
  5
22C
  8
LAYER_1
 62
   250
 10
409.9798135623731
 20
-193.2097135623731
 30
0.0
  0
VERTEX
  5
22D
  8
LAYER_1
 62
   250
 10
410.2285392246051
 20
-192.9066404660392
 30
0.0
  0
VERTEX
  5
22E
  8
LAYER_1
 62
   250
 10
410.4133590650226
 20
-192.5608668647302
 30
0.0
  0
VERTEX
  5
22F
  8
LAYER_1
 62
   250
 10
410.5271705608065
 20
-192.1856806440323
 30
0.0
  0
VERTEX
  5
230
  8
LAYER_1
 62
   250
 10
410.5656
 20
-191.7955
 30
0.0
  0
VERTEX
  5
231
  8
LAYER_1
 62
   250
 10
410.5271705608065
 20
-191.4053193559677
 30
0.0
  0
VERTEX
  5
232
  8
LAYER_1
 62
   250
 10
410.4133590650226
 20
-191.0301331352698
 30
0.0
  0
VERTEX
  5
233
  8
LAYER_1
 62
   250
 10
410.2285392246051
 20
-190.6843595339608
 30
0.0
  0
VERTEX
  5
234
  8
LAYER_1
 62
   250
 10
409.9798135623731
 20
-190.3812864376269
 30
0.0
  0
VERTEX
  5
235
  8
LAYER_1
 62
   250
 10
409.6767404660392
 20
-190.1325607753949
 30
0.0
  0
VERTEX
  5
236
  8
LAYER_1
 62
   250
 10
409.3309668647302
 20
-189.9477409349774
 30
0.0
  0
VERTEX
  5
237
  8
LAYER_1
 62
   250
 10
408.9557806440322
 20
-189.8339294391936
 30
0.0
  0
SEQEND
  5
238
  8
LAYER_1
 62
   250
  0
POLYLINE
  5
51
  8
LAYER_1
 62
   250
 66
     1
 10
0.0
 20
0.0
 30
0.0
 70
     1
  0
VERTEX
  5
239
  8
LAYER_1
 62
   250
 10
-566.5098
 20
-367.8955
 30
0.0
  0
VERTEX
  5
23A
  8
LAYER_1
 62
   250
 10
-316.51
 20
-367.8955
 30
0.0
  0
VERTEX
  5
23B
  8
LAYER_1
 62
   250
 10
-316.51
 20
-197.8955
 30
0.0
  0
VERTEX
  5
23C
  8
LAYER_1
 62
   250
 10
-566.5098
 20
-197.8955
 30
0.0
  0
VERTEX
  5
23D
  8
LAYER_1
 62
   250
 10
-566.5098
 20
-367.8955
 30
0.0
  0
SEQEND
  5
23E
  8
LAYER_1
 62
   250
  0
POLYLINE
  5
52
  8
LAYER_1
 62
   250
 66
     1
 10
0.0
 20
0.0
 30
0.0
 70
     1
  0
VERTEX
  5
23F
  8
LAYER_1
 62
   250
 10
-316.5099
 20
-367.8955
 30
0.0
  0
VERTEX
  5
240
  8
LAYER_1
 62
   250
 10
-66.5101
 20
-367.8955
 30
0.0
  0
VERTEX
  5
241
  8
LAYER_1
 62
   250
 10
-66.5101
 20
-197.8955
 30
0.0
  0
VERTEX
  5
242
  8
LAYER_1
 62
   250
 10
-316.5099
 20
-197.8955
 30
0.0
  0
VERTEX
  5
243
  8
LAYER_1
 62
   250
 10
-316.5099
 20
-367.8955
 30
0.0
  0
SEQEND
  5
244
  8
LAYER_1
 62
   250
  0
ENDSEC
  0
EOF
